<svg width="184" height="73" viewBox="0 0 184 73" fill="none" xmlns="http://www.w3.org/2000/svg">
<path d="M4.53516 26V22.0273H10.7578C12.5508 22.0273 14.0332 21.6992 15.2051 21.043C16.3887 20.3867 17.2793 19.4141 17.877 18.125C18.4746 16.8242 18.7734 15.2012 18.7734 13.2559C18.7734 11.3105 18.4805 9.69336 17.8945 8.4043C17.3086 7.10352 16.4297 6.13086 15.2578 5.48633C14.0977 4.8418 12.6445 4.51953 10.8984 4.51953H4.39453V0.546875H11.1445C13.6641 0.546875 15.8379 1.05664 17.666 2.07617C19.4941 3.08398 20.8945 4.54297 21.8672 6.45312C22.8398 8.36328 23.3262 10.6309 23.3262 13.2559C23.3262 15.8926 22.834 18.166 21.8496 20.0762C20.877 21.9863 19.4648 23.4512 17.6133 24.4707C15.7617 25.4902 13.5527 26 10.9863 26H4.53516ZM6.94336 26H2.37305V0.546875H6.94336V26ZM27.4395 0.546875H43.9805V4.39648H32.0098V11.3574H43.1191V15.1719H32.0098V22.1504H44.0508V26H27.4395V0.546875ZM46.5645 0.546875H51.4512L56.0742 19.2852H56.3027L61.207 0.546875H65.7246L70.6465 19.3027H70.8574L75.4629 0.546875H80.3672L73.2129 26H68.6602L63.5801 8.08789H63.3691L58.2715 26H53.7363L46.5645 0.546875ZM96.9434 7.52539C96.873 6.81055 96.6328 6.18945 96.2227 5.66211C95.8242 5.13477 95.2734 4.74219 94.5703 4.48438C93.8789 4.21484 93.0703 4.08008 92.1445 4.08008C91.207 4.08008 90.3867 4.2207 89.6836 4.50195C88.9922 4.7832 88.4531 5.17578 88.0664 5.67969C87.6914 6.18359 87.5039 6.76367 87.5039 7.41992C87.5039 8.38086 87.9023 9.125 88.6992 9.65234C89.5078 10.1797 90.5625 10.6074 91.8633 10.9355L94.2363 11.5332C96.498 12.0605 98.3086 12.8984 99.668 14.0469C101.027 15.1953 101.713 16.7949 101.725 18.8457C101.725 20.334 101.338 21.6465 100.564 22.7832C99.8027 23.9199 98.6953 24.8047 97.2422 25.4375C95.8008 26.0703 94.0723 26.3867 92.0566 26.3867C90.0879 26.3867 88.3711 26.082 86.9062 25.4727C85.4531 24.8516 84.3223 23.9492 83.5137 22.7656C82.7051 21.582 82.2656 20.1582 82.1953 18.4941H86.6953C86.7656 19.3613 87.041 20.0938 87.5215 20.6914C88.002 21.2773 88.6289 21.7227 89.4023 22.0273C90.1758 22.3203 91.0488 22.4668 92.0215 22.4668C93.0293 22.4668 93.9199 22.3145 94.6934 22.0098C95.4668 21.7051 96.0645 21.2773 96.4863 20.7266C96.9199 20.1641 97.1367 19.5254 97.1367 18.8105C97.1367 18.1777 96.9551 17.6445 96.5918 17.2109C96.2285 16.7656 95.7129 16.3965 95.0449 16.1035C94.3887 15.8105 93.5566 15.5352 92.5488 15.2773L89.6484 14.5391C87.4688 13.9648 85.793 13.1211 84.6211 12.0078C83.4609 10.8945 82.8809 9.45312 82.8809 7.68359C82.8809 6.20703 83.2852 4.90625 84.0938 3.78125C84.9023 2.64453 86.0156 1.76562 87.4336 1.14453C88.8516 0.511719 90.4453 0.195312 92.2148 0.195312C93.9844 0.195312 95.5547 0.505859 96.9258 1.12695C98.3086 1.74805 99.3867 2.61523 100.16 3.72852C100.934 4.83008 101.338 6.0957 101.373 7.52539H96.9434Z" fill="url(#paint0_linear_1_685)"/>
<path d="M4.53516 26V22.0273H10.7578C12.5508 22.0273 14.0332 21.6992 15.2051 21.043C16.3887 20.3867 17.2793 19.4141 17.877 18.125C18.4746 16.8242 18.7734 15.2012 18.7734 13.2559C18.7734 11.3105 18.4805 9.69336 17.8945 8.4043C17.3086 7.10352 16.4297 6.13086 15.2578 5.48633C14.0977 4.8418 12.6445 4.51953 10.8984 4.51953H4.39453V0.546875H11.1445C13.6641 0.546875 15.8379 1.05664 17.666 2.07617C19.4941 3.08398 20.8945 4.54297 21.8672 6.45312C22.8398 8.36328 23.3262 10.6309 23.3262 13.2559C23.3262 15.8926 22.834 18.166 21.8496 20.0762C20.877 21.9863 19.4648 23.4512 17.6133 24.4707C15.7617 25.4902 13.5527 26 10.9863 26H4.53516ZM6.94336 26H2.37305V0.546875H6.94336V26ZM27.4395 0.546875H43.9805V4.39648H32.0098V11.3574H43.1191V15.1719H32.0098V22.1504H44.0508V26H27.4395V0.546875ZM46.5645 0.546875H51.4512L56.0742 19.2852H56.3027L61.207 0.546875H65.7246L70.6465 19.3027H70.8574L75.4629 0.546875H80.3672L73.2129 26H68.6602L63.5801 8.08789H63.3691L58.2715 26H53.7363L46.5645 0.546875ZM96.9434 7.52539C96.873 6.81055 96.6328 6.18945 96.2227 5.66211C95.8242 5.13477 95.2734 4.74219 94.5703 4.48438C93.8789 4.21484 93.0703 4.08008 92.1445 4.08008C91.207 4.08008 90.3867 4.2207 89.6836 4.50195C88.9922 4.7832 88.4531 5.17578 88.0664 5.67969C87.6914 6.18359 87.5039 6.76367 87.5039 7.41992C87.5039 8.38086 87.9023 9.125 88.6992 9.65234C89.5078 10.1797 90.5625 10.6074 91.8633 10.9355L94.2363 11.5332C96.498 12.0605 98.3086 12.8984 99.668 14.0469C101.027 15.1953 101.713 16.7949 101.725 18.8457C101.725 20.334 101.338 21.6465 100.564 22.7832C99.8027 23.9199 98.6953 24.8047 97.2422 25.4375C95.8008 26.0703 94.0723 26.3867 92.0566 26.3867C90.0879 26.3867 88.3711 26.082 86.9062 25.4727C85.4531 24.8516 84.3223 23.9492 83.5137 22.7656C82.7051 21.582 82.2656 20.1582 82.1953 18.4941H86.6953C86.7656 19.3613 87.041 20.0938 87.5215 20.6914C88.002 21.2773 88.6289 21.7227 89.4023 22.0273C90.1758 22.3203 91.0488 22.4668 92.0215 22.4668C93.0293 22.4668 93.9199 22.3145 94.6934 22.0098C95.4668 21.7051 96.0645 21.2773 96.4863 20.7266C96.9199 20.1641 97.1367 19.5254 97.1367 18.8105C97.1367 18.1777 96.9551 17.6445 96.5918 17.2109C96.2285 16.7656 95.7129 16.3965 95.0449 16.1035C94.3887 15.8105 93.5566 15.5352 92.5488 15.2773L89.6484 14.5391C87.4688 13.9648 85.793 13.1211 84.6211 12.0078C83.4609 10.8945 82.8809 9.45312 82.8809 7.68359C82.8809 6.20703 83.2852 4.90625 84.0938 3.78125C84.9023 2.64453 86.0156 1.76562 87.4336 1.14453C88.8516 0.511719 90.4453 0.195312 92.2148 0.195312C93.9844 0.195312 95.5547 0.505859 96.9258 1.12695C98.3086 1.74805 99.3867 2.61523 100.16 3.72852C100.934 4.83008 101.338 6.0957 101.373 7.52539H96.9434Z" fill="#B6C5D9"/>
<path d="M28.6348 72.0938H24.873V40.3477H28.6348V72.0938ZM26.1738 56.0098H20.5488V52.793H26.1738V56.0098ZM21.6387 70.5996H17.9297V40.8926H21.6387V70.5996ZM10.1074 48.4688C10.1074 51.1641 9.86133 53.6309 9.36914 55.8691C8.87695 58.0957 8.09766 60.0703 7.03125 61.793C5.97656 63.5156 4.60547 64.875 2.91797 65.8711L0.509766 62.8652C2.04492 62.0098 3.30469 60.8555 4.28906 59.4023C5.27344 57.9492 5.98828 56.3027 6.43359 54.4629C6.89062 52.623 7.11914 50.625 7.11914 48.4688V45.252H10.1074V48.4688ZM10.916 48.4688C10.916 50.4375 11.1445 52.2773 11.6016 53.9883C12.0703 55.6875 12.7969 57.2109 13.7812 58.5586C14.7773 59.9062 16.0312 60.9727 17.543 61.7578L15.2754 64.7461C13.5879 63.832 12.1934 62.5664 11.0918 60.9492C10.002 59.332 9.19922 57.4688 8.68359 55.3594C8.16797 53.25 7.91016 50.9531 7.91016 48.4688V45.252H10.916V48.4688ZM16.1191 46.9746H1.49414V43.8105H16.1191V46.9746ZM37.459 55.8691H33.5391V42.5273H37.459V55.8691ZM36.1934 54.5859C38.6777 54.5977 41.0918 54.5098 43.4355 54.3223C45.791 54.1348 48.1641 53.7891 50.5547 53.2852L50.9941 56.4844C48.5449 56.9883 46.1133 57.3398 43.6992 57.5391C41.2969 57.7383 38.7949 57.8379 36.1934 57.8379H33.5391V54.5859H36.1934ZM57.2344 63.2344H53.332V40.3828H57.2344V63.2344ZM61.6816 52.7754H56.0742V49.4707H61.6816V52.7754ZM58.3066 71.5312H36.9492V68.332H58.3066V71.5312ZM40.8516 70.0195H36.9492V61.0723H40.8516V70.0195ZM90.6152 72.0938H86.9238V40.3477H90.6152V72.0938ZM87.8379 55.9395H82.1953V52.793H87.8379V55.9395ZM83.3203 70.5293H79.752V40.9453H83.3203V70.5293ZM66.4277 61.4062C68.8301 61.4062 70.875 61.3535 72.5625 61.248C74.25 61.1426 75.9727 60.9258 77.7305 60.5977L78.0293 63.7969C76.2363 64.1367 74.4727 64.3711 72.7383 64.5C71.0156 64.6172 68.9121 64.6816 66.4277 64.6934H64.2656V61.4062H66.4277ZM76.1309 47.2734H68.1855V62.9883H64.2656V44.1094H76.1309V47.2734ZM120.938 72.0938H116.982V40.3477H120.938V72.0938ZM113.203 46.6406H95.1855V43.459H113.203V46.6406ZM94.3418 61.4062C98.0215 61.4062 101.572 61.3418 104.994 61.2129C108.428 61.0723 111.633 60.8262 114.609 60.4746L114.838 63.375C111.803 63.8672 108.662 64.1953 105.416 64.3594C102.182 64.5117 98.6191 64.5996 94.7285 64.623L94.3418 61.4062ZM102.041 62.25H98.2441V45.8848H102.041V62.25ZM110.145 62.25H106.312V45.8848H110.145V62.25ZM150.574 63.5859H146.672V40.3652H150.574V63.5859ZM155.021 52.8984H149.414V49.6641H155.021V52.8984ZM151.822 71.5312H130.219V68.332H151.822V71.5312ZM134.104 69.7207H130.219V61.1602H134.104V69.7207ZM134.42 42.457C136.025 42.457 137.479 42.8027 138.779 43.4941C140.092 44.1738 141.123 45.1172 141.873 46.3242C142.623 47.5312 142.998 48.9082 142.998 50.4551C142.998 51.9785 142.623 53.3496 141.873 54.5684C141.123 55.7754 140.092 56.7246 138.779 57.416C137.479 58.1074 136.025 58.4531 134.42 58.4531C132.838 58.4531 131.391 58.1074 130.078 57.416C128.766 56.7246 127.734 55.7695 126.984 54.5508C126.234 53.332 125.859 51.9668 125.859 50.4551C125.859 48.9082 126.234 47.5312 126.984 46.3242C127.734 45.1172 128.76 44.1738 130.061 43.4941C131.373 42.8027 132.826 42.457 134.42 42.457ZM134.42 45.8848C133.564 45.873 132.768 46.0547 132.029 46.4297C131.303 46.8047 130.729 47.3438 130.307 48.0469C129.896 48.7383 129.691 49.541 129.691 50.4551C129.691 51.3574 129.896 52.1543 130.307 52.8457C130.729 53.5254 131.303 54.0586 132.029 54.4453C132.768 54.832 133.564 55.0254 134.42 55.0254C135.334 55.0254 136.148 54.8379 136.863 54.4629C137.59 54.0762 138.158 53.5371 138.568 52.8457C138.979 52.1543 139.184 51.3574 139.184 50.4551C139.184 49.5293 138.979 48.7207 138.568 48.0293C138.158 47.3379 137.59 46.8047 136.863 46.4297C136.148 46.0547 135.334 45.873 134.42 45.8848ZM183.92 72.0938H180.141V40.3477H183.92V72.0938ZM181.178 56.0449H175.535V52.8457H181.178V56.0449ZM176.643 70.5293H172.969V40.9453H176.643V70.5293ZM161.912 62.3203H158.01V44.0039H161.912V62.3203ZM160.102 60.791C161.965 60.791 163.775 60.7207 165.533 60.5801C167.291 60.4395 169.107 60.1875 170.982 59.8242L171.404 63.2344C169.377 63.5742 167.438 63.8262 165.586 63.9902C163.746 64.1426 161.918 64.2188 160.102 64.2188H158.01V60.791H160.102Z" fill="#2A3C54"/>
<defs>
<linearGradient id="paint0_linear_1_685" x1="93.5" y1="-8" x2="93.5" y2="78" gradientUnits="userSpaceOnUse">
<stop stop-color="#B6C5D9"/>
<stop offset="1" stop-color="#2A3C54"/>
</linearGradient>
</defs>
</svg>
