<svg width="224" height="75" viewBox="0 0 224 75" fill="none" xmlns="http://www.w3.org/2000/svg">
<path d="M82.18 25.86H62.62V34.32H80.92V42.78H62.62V51.54H82.78L82.18 60H53.02V17.4H82.18V25.86ZM87.7661 60V17.4H101.566C109.966 17.4 116.306 19.18 120.586 22.74C124.866 26.3 127.006 31.58 127.006 38.58C127.006 42.82 126.046 46.54 124.126 49.74C122.206 52.94 119.526 55.46 116.086 57.3C112.646 59.1 108.666 60 104.146 60H87.7661ZM97.5461 51.3H103.726C108.086 51.3 111.386 50.26 113.626 48.18C115.906 46.06 117.046 42.96 117.046 38.88C117.046 34.56 115.866 31.36 113.506 29.28C111.186 27.16 107.606 26.1 102.766 26.1H97.5461V51.3ZM180.004 17.4H189.244L176.944 60H165.844L158.824 29.76L150.424 60H139.264L128.644 17.4H138.544L145.444 46.98L153.604 17.4H165.244L171.904 46.86L180.004 17.4ZM205.453 60.54C200.213 60.54 196.153 59.42 193.273 57.18C190.393 54.94 188.753 51.64 188.353 47.28L197.533 45.96C197.773 48.04 198.593 49.64 199.993 50.76C201.393 51.84 203.333 52.38 205.813 52.38C207.933 52.38 209.553 52.02 210.673 51.3C211.833 50.54 212.413 49.48 212.413 48.12C212.413 46.88 211.813 45.9 210.613 45.18C209.413 44.46 207.433 43.78 204.673 43.14C201.713 42.42 199.213 41.56 197.173 40.56C195.133 39.52 193.593 38.18 192.553 36.54C191.513 34.9 190.993 32.82 190.993 30.3C190.993 27.66 191.673 25.32 193.033 23.28C194.393 21.24 196.293 19.66 198.733 18.54C201.173 17.38 203.993 16.8 207.193 16.8C211.353 16.8 214.753 17.86 217.393 19.98C220.033 22.1 221.553 25 221.953 28.68L213.373 30.12C213.053 28.48 212.313 27.22 211.153 26.34C209.993 25.42 208.533 24.96 206.773 24.96C205.013 24.96 203.593 25.38 202.513 26.22C201.433 27.02 200.893 28.12 200.893 29.52C200.893 30.8 201.413 31.84 202.453 32.64C203.493 33.4 205.393 34.12 208.153 34.8C211.073 35.52 213.593 36.34 215.713 37.26C217.833 38.14 219.453 39.36 220.573 40.92C221.733 42.48 222.313 44.6 222.313 47.28C222.313 49.88 221.613 52.18 220.213 54.18C218.813 56.18 216.833 57.74 214.273 58.86C211.753 59.98 208.813 60.54 205.453 60.54Z" fill="url(#paint0_linear_1_10)"/>
<rect x="4" y="18" width="43" height="43" fill="#880505"/>
<g filter="url(#filter0_d_1_10)">
<path d="M4 36H18.7553C25.1877 36 31.2275 39.0938 34.986 44.3139L47 61H4V36Z" fill="#AB4F4F"/>
</g>
<defs>
<filter id="filter0_d_1_10" x="0" y="28" width="51" height="33" filterUnits="userSpaceOnUse" color-interpolation-filters="sRGB">
<feFlood flood-opacity="0" result="BackgroundImageFix"/>
<feColorMatrix in="SourceAlpha" type="matrix" values="0 0 0 0 0 0 0 0 0 0 0 0 0 0 0 0 0 0 127 0" result="hardAlpha"/>
<feOffset dy="-4"/>
<feGaussianBlur stdDeviation="2"/>
<feComposite in2="hardAlpha" operator="out"/>
<feColorMatrix type="matrix" values="0 0 0 0 0 0 0 0 0 0 0 0 0 0 0 0 0 0 0.25 0"/>
<feBlend mode="normal" in2="BackgroundImageFix" result="effect1_dropShadow_1_10"/>
<feBlend mode="normal" in="SourceGraphic" in2="effect1_dropShadow_1_10" result="shape"/>
</filter>
<linearGradient id="paint0_linear_1_10" x1="114" y1="-8.5" x2="138.5" y2="80" gradientUnits="userSpaceOnUse">
<stop stop-color="#880505"/>
<stop offset="1" stop-color="#272727"/>
</linearGradient>
</defs>
</svg>
