<svg width="216" height="73" viewBox="0 0 216 73" fill="none" xmlns="http://www.w3.org/2000/svg">
<path d="M4.51758 26V21.4648H10.8984C12.5391 21.4648 13.9043 21.1719 14.9941 20.5859C16.084 20 16.9043 19.1035 17.4551 17.8965C18.0059 16.6777 18.2812 15.1309 18.2812 13.2559C18.2812 11.3809 18.0059 9.83984 17.4551 8.63281C16.916 7.41406 16.1016 6.51758 15.0117 5.94336C13.9219 5.36914 12.5625 5.08203 10.9336 5.08203H4.39453V0.546875H11.1973C13.752 0.546875 15.9551 1.05664 17.8066 2.07617C19.6699 3.08398 21.0938 4.54297 22.0781 6.45312C23.0742 8.36328 23.5723 10.6309 23.5723 13.2559C23.5723 15.8926 23.0742 18.166 22.0781 20.0762C21.082 21.9863 19.6465 23.4512 17.7715 24.4707C15.9082 25.4902 13.6934 26 11.127 26H4.51758ZM7.43555 26H2.16211V0.546875H7.43555V26ZM27.4043 0.546875H44.4902V4.90625H32.6777V11.0938H43.5938V15.4355H32.6777V21.6406H44.5254V26H27.4043V0.546875ZM47.0215 0.546875H52.7695L57.041 18.3359H57.2695L61.9277 0.546875H66.9199L71.5957 18.3887H71.8066L76.0781 0.546875H81.8262L74.5664 26H69.3809L64.5293 9.19531H64.3359L59.4668 26H54.2988L47.0215 0.546875ZM98.1035 7.82422C98.0332 7.14453 97.8164 6.56445 97.4531 6.08398C97.1016 5.60352 96.6094 5.24023 95.9766 4.99414C95.3438 4.74805 94.5879 4.625 93.709 4.625C92.8535 4.625 92.1094 4.74805 91.4766 4.99414C90.8555 5.24023 90.3809 5.58594 90.0527 6.03125C89.7246 6.46484 89.5605 6.96289 89.5605 7.52539C89.5488 8.38086 89.9004 9.04883 90.6152 9.5293C91.3418 10.0098 92.3438 10.4082 93.6211 10.7246L95.9062 11.2695C98.3203 11.8086 100.189 12.6816 101.514 13.8887C102.85 15.084 103.523 16.7012 103.535 18.7402C103.535 20.2754 103.143 21.6172 102.357 22.7656C101.572 23.9141 100.441 24.7988 98.9648 25.4199C97.4883 26.041 95.7246 26.3516 93.6738 26.3516C91.623 26.3516 89.8359 26.0352 88.3125 25.4023C86.8008 24.7695 85.6289 23.8379 84.7969 22.6074C83.9648 21.3652 83.5195 19.8477 83.4609 18.0547H88.5938C88.6641 18.8867 88.916 19.5898 89.3496 20.1641C89.7832 20.7383 90.3691 21.1719 91.1074 21.4648C91.8457 21.7578 92.6836 21.9043 93.6211 21.9043C94.5352 21.9043 95.3379 21.7695 96.0293 21.5C96.7207 21.2305 97.2539 20.8555 97.6289 20.375C98.0039 19.8828 98.1914 19.3262 98.1914 18.7051C98.1914 18.1426 98.0273 17.668 97.6992 17.2812C97.3711 16.8828 96.8906 16.5488 96.2578 16.2793C95.6367 15.998 94.834 15.7344 93.8496 15.4883L91.0547 14.8203C88.8281 14.2695 87.1172 13.4316 85.9219 12.3066C84.7383 11.1699 84.1465 9.69336 84.1465 7.87695C84.1465 6.36523 84.5566 5.0293 85.377 3.86914C86.209 2.70898 87.3516 1.80664 88.8047 1.16211C90.2695 0.517578 91.9219 0.195312 93.7617 0.195312C95.6133 0.195312 97.248 0.517578 98.666 1.16211C100.084 1.79492 101.186 2.69141 101.971 3.85156C102.756 5 103.16 6.32422 103.184 7.82422H98.1035Z" fill="url(#paint0_linear_1_685)"/>
<path d="M4.51758 26V21.4648H10.8984C12.5391 21.4648 13.9043 21.1719 14.9941 20.5859C16.084 20 16.9043 19.1035 17.4551 17.8965C18.0059 16.6777 18.2812 15.1309 18.2812 13.2559C18.2812 11.3809 18.0059 9.83984 17.4551 8.63281C16.916 7.41406 16.1016 6.51758 15.0117 5.94336C13.9219 5.36914 12.5625 5.08203 10.9336 5.08203H4.39453V0.546875H11.1973C13.752 0.546875 15.9551 1.05664 17.8066 2.07617C19.6699 3.08398 21.0938 4.54297 22.0781 6.45312C23.0742 8.36328 23.5723 10.6309 23.5723 13.2559C23.5723 15.8926 23.0742 18.166 22.0781 20.0762C21.082 21.9863 19.6465 23.4512 17.7715 24.4707C15.9082 25.4902 13.6934 26 11.127 26H4.51758ZM7.43555 26H2.16211V0.546875H7.43555V26ZM27.4043 0.546875H44.4902V4.90625H32.6777V11.0938H43.5938V15.4355H32.6777V21.6406H44.5254V26H27.4043V0.546875ZM47.0215 0.546875H52.7695L57.041 18.3359H57.2695L61.9277 0.546875H66.9199L71.5957 18.3887H71.8066L76.0781 0.546875H81.8262L74.5664 26H69.3809L64.5293 9.19531H64.3359L59.4668 26H54.2988L47.0215 0.546875ZM98.1035 7.82422C98.0332 7.14453 97.8164 6.56445 97.4531 6.08398C97.1016 5.60352 96.6094 5.24023 95.9766 4.99414C95.3438 4.74805 94.5879 4.625 93.709 4.625C92.8535 4.625 92.1094 4.74805 91.4766 4.99414C90.8555 5.24023 90.3809 5.58594 90.0527 6.03125C89.7246 6.46484 89.5605 6.96289 89.5605 7.52539C89.5488 8.38086 89.9004 9.04883 90.6152 9.5293C91.3418 10.0098 92.3438 10.4082 93.6211 10.7246L95.9062 11.2695C98.3203 11.8086 100.189 12.6816 101.514 13.8887C102.85 15.084 103.523 16.7012 103.535 18.7402C103.535 20.2754 103.143 21.6172 102.357 22.7656C101.572 23.9141 100.441 24.7988 98.9648 25.4199C97.4883 26.041 95.7246 26.3516 93.6738 26.3516C91.623 26.3516 89.8359 26.0352 88.3125 25.4023C86.8008 24.7695 85.6289 23.8379 84.7969 22.6074C83.9648 21.3652 83.5195 19.8477 83.4609 18.0547H88.5938C88.6641 18.8867 88.916 19.5898 89.3496 20.1641C89.7832 20.7383 90.3691 21.1719 91.1074 21.4648C91.8457 21.7578 92.6836 21.9043 93.6211 21.9043C94.5352 21.9043 95.3379 21.7695 96.0293 21.5C96.7207 21.2305 97.2539 20.8555 97.6289 20.375C98.0039 19.8828 98.1914 19.3262 98.1914 18.7051C98.1914 18.1426 98.0273 17.668 97.6992 17.2812C97.3711 16.8828 96.8906 16.5488 96.2578 16.2793C95.6367 15.998 94.834 15.7344 93.8496 15.4883L91.0547 14.8203C88.8281 14.2695 87.1172 13.4316 85.9219 12.3066C84.7383 11.1699 84.1465 9.69336 84.1465 7.87695C84.1465 6.36523 84.5566 5.0293 85.377 3.86914C86.209 2.70898 87.3516 1.80664 88.8047 1.16211C90.2695 0.517578 91.9219 0.195312 93.7617 0.195312C95.6133 0.195312 97.248 0.517578 98.666 1.16211C100.084 1.79492 101.186 2.69141 101.971 3.85156C102.756 5 103.16 6.32422 103.184 7.82422H98.1035Z" fill="#B6C5D9"/>
<path d="M28.8809 72.2344H24.5742V40.207H28.8809V72.2344ZM26.0332 56.2207H20.6367V52.582H26.0332V56.2207ZM21.8496 70.7578H17.6133V40.6992H21.8496V70.7578ZM10.1602 48.1348C10.1602 50.9238 9.93164 53.4668 9.47461 55.7637C9.01758 58.0605 8.26172 60.1055 7.20703 61.8984C6.16406 63.6797 4.78125 65.0859 3.05859 66.1172L0.298828 62.6719C1.8457 61.7812 3.09961 60.6035 4.06055 59.1387C5.0332 57.6621 5.72461 56.0039 6.13477 54.1641C6.55664 52.3242 6.76758 50.3145 6.76758 48.1348V45.1641H10.1602V48.1348ZM11.127 48.1348C11.127 50.127 11.3379 51.9785 11.7598 53.6895C12.1934 55.3887 12.8965 56.9238 13.8691 58.2949C14.8418 59.6543 16.1016 60.7383 17.6484 61.5469L15.0645 64.957C13.3184 64.0312 11.8945 62.7305 10.793 61.0547C9.70312 59.3672 8.91211 57.4395 8.41992 55.2715C7.93945 53.0918 7.69922 50.7129 7.69922 48.1348V45.1641H11.127V48.1348ZM16.0312 47.1328H1.38867V43.5469H16.0312V47.1328ZM37.8457 55.7637H33.3457V42.3691H37.8457V55.7637ZM36.0879 54.2871C38.5723 54.2988 40.9863 54.2109 43.3301 54.0234C45.6855 53.8359 48.0469 53.4961 50.4141 53.0039L50.9062 56.6777C48.4805 57.1582 46.0547 57.498 43.6289 57.6973C41.2031 57.8965 38.6895 57.9961 36.0879 57.9961H33.3457V54.2871H36.0879ZM57.4453 63.2344H52.9629V40.2773H57.4453V63.2344ZM61.7695 53.0215H56.1445V49.2598H61.7695V53.0215ZM58.5 71.6895H36.7383V68.0684H58.5V71.6895ZM41.2207 70.0723H36.7383V61.1074H41.2207V70.0723ZM86.3965 48.9434H78.7148V45.4102H86.3965V48.9434ZM86.1328 55.5879H78.4863V51.9844H86.1328V55.5879ZM90.1406 58.6992H85.6758V40.2773H90.1406V58.6992ZM79.9277 42.4043C79.9277 45.2871 79.377 47.8418 78.2754 50.0684C77.1738 52.2949 75.5332 54.1816 73.3535 55.7285C71.1738 57.2754 68.4609 58.4941 65.2148 59.3848L63.457 55.8516C66.1289 55.1484 68.332 54.2402 70.0664 53.127C71.8008 52.0137 73.0781 50.7363 73.8984 49.2949C74.7305 47.8535 75.1465 46.2832 75.1465 44.584V42.4043H79.9277ZM78.2578 46.0254H65.1621V42.4043H78.2578V46.0254ZM79.4707 59.0859C81.6387 59.0859 83.543 59.3555 85.1836 59.8945C86.8359 60.4219 88.1133 61.1719 89.0156 62.1445C89.918 63.1055 90.3691 64.248 90.3691 65.5723C90.3691 66.8848 89.918 68.0332 89.0156 69.0176C88.1133 70.0137 86.8359 70.7754 85.1836 71.3027C83.543 71.8301 81.6387 72.0938 79.4707 72.0938C77.3027 72.0938 75.3926 71.8301 73.7402 71.3027C72.0996 70.7754 70.8223 70.0137 69.9082 69.0176C69.0059 68.0332 68.5547 66.8848 68.5547 65.5723C68.5547 64.248 69.0059 63.1055 69.9082 62.1445C70.8223 61.1719 72.0996 60.4219 73.7402 59.8945C75.3926 59.3555 77.3027 59.0859 79.4707 59.0859ZM79.4707 62.584C78.1348 62.5605 76.9805 62.666 76.0078 62.9004C75.0352 63.123 74.2969 63.4629 73.793 63.9199C73.2891 64.3652 73.0371 64.916 73.0371 65.5723C73.0371 66.2168 73.2891 66.7617 73.793 67.207C74.2969 67.6523 75.0293 67.9863 75.9902 68.209C76.9512 68.4316 78.1113 68.543 79.4707 68.543C80.8184 68.543 81.9668 68.4316 82.916 68.209C83.877 67.9863 84.6094 67.6523 85.1133 67.207C85.6289 66.7617 85.8867 66.2168 85.8867 65.5723C85.8867 64.916 85.6289 64.3652 85.1133 63.9199C84.6094 63.4629 83.877 63.123 82.916 62.9004C81.9668 62.666 80.8184 62.5605 79.4707 62.584ZM123.557 68.5078H94.3066V64.8867H123.557V68.5078ZM111.076 65.7832H106.664V57.9434H111.076V65.7832ZM101.9 47.2559H115.84V42.2637H120.305V58.9453H97.4004V42.2637H101.9V47.2559ZM115.84 55.3594V50.8066H101.9V55.3594H115.84ZM137.004 47.4668C137.004 50.2793 136.658 52.8984 135.967 55.3242C135.287 57.75 134.256 59.8887 132.873 61.7402C131.49 63.5801 129.768 64.9746 127.705 65.9238L124.98 62.1797C126.797 61.4062 128.326 60.2695 129.568 58.7695C130.822 57.2695 131.76 55.5469 132.381 53.6016C133.002 51.6562 133.312 49.6113 133.312 47.4668V42.6855H137.004V47.4668ZM137.865 47.4668C137.865 49.5059 138.164 51.4512 138.762 53.3027C139.371 55.1426 140.285 56.7891 141.504 58.2422C142.723 59.6953 144.205 60.791 145.951 61.5293L143.314 65.1328C141.334 64.2305 139.652 62.8945 138.27 61.125C136.898 59.3555 135.873 57.3047 135.193 54.9727C134.514 52.6406 134.174 50.1387 134.174 47.4668V42.6855H137.865V47.4668ZM152.191 72.3223H147.639V40.207H152.191V72.3223ZM172.512 44.4434C172.512 46.7637 171.967 48.9375 170.877 50.9648C169.787 52.9922 168.234 54.7266 166.219 56.168C164.215 57.5977 161.865 58.582 159.17 59.1211L157.254 55.3945C159.551 54.9609 161.555 54.1816 163.266 53.0566C164.988 51.9316 166.301 50.6133 167.203 49.1016C168.117 47.5898 168.574 46.0371 168.574 44.4434V42.1582H172.512V44.4434ZM173.338 44.4434C173.338 46.0488 173.789 47.6133 174.691 49.1367C175.605 50.6602 176.924 51.9844 178.646 53.1094C180.381 54.2227 182.408 54.9844 184.729 55.3945L182.76 59.1211C180.088 58.582 177.744 57.6035 175.729 56.1855C173.725 54.7676 172.184 53.0449 171.105 51.0176C170.027 48.9902 169.488 46.7988 169.488 44.4434V42.1582H173.338V44.4434ZM185.783 68.3145H156.533V64.6406H185.783V68.3145ZM206.262 51.5273H201.252V47.9238H206.262V51.5273ZM191.074 54.5332C193.523 54.5332 195.562 54.4863 197.191 54.3926C198.832 54.2988 200.496 54.1172 202.184 53.8477L202.623 57.3105C200.9 57.6152 199.195 57.8203 197.508 57.9258C195.832 58.0312 193.688 58.084 191.074 58.084H188.912V54.5332H191.074ZM201.094 45.7441H193.201V56.5723H188.912V42.1406H201.094V45.7441ZM199.898 51.7383H191.918V48.3105H199.898V51.7383ZM215.121 59.332H210.85V40.207H215.121V59.332ZM208.758 59.1211H204.504V40.7344H208.758V59.1211ZM215.121 71.8828H193.271V60.5801H215.121V71.8828ZM197.736 68.2793H210.674V64.1309H197.736V68.2793Z" fill="#2A3C54"/>
<defs>
<linearGradient id="paint0_linear_1_685" x1="109" y1="-8" x2="109" y2="78" gradientUnits="userSpaceOnUse">
<stop stop-color="#B6C5D9"/>
<stop offset="1" stop-color="#2A3C54"/>
</linearGradient>
</defs>
</svg>
